<?xml version="1.0" encoding="UTF-8"?>
<svg id="Layer_2" data-name="Layer 2" xmlns="http://www.w3.org/2000/svg" viewBox="0 0 145.95 124.92">
  <defs>
    <style>
      .cls-1 {
        fill: #fed430;
      }

      .cls-1, .cls-2, .cls-3, .cls-4 {
        stroke-width: 0px;
      }

      .cls-2 {
        fill: #78bee3;
      }

      .cls-3 {
        fill: #000;
      }

      .cls-4 {
        fill: #c9a1dd;
      }
    </style>
  </defs>
  <g id="Vector_layer" data-name="Vector layer">
    <g>
      <path class="cls-3" d="M47.65,35.43c-1.12,1.04-2.2,2.11-3.29,3.18-.06-.07-.11-.14-.16-.22-1.7-1.7-3.31-3.49-5.06-5.13-4.18-3.89-8.42-7.73-12.45-11.78.3,7.12.22,14.25,0,21.38-.05.87-.02,1.73-.08,2.58-.93.36-1.86.71-2.79,1.05-.02-.05-.04-.11-.05-.16-.94-8.78-1.31-17.89-1.14-26.72.05-.81.08-1.62.29-2.41.45-1.8,2.48-2.04,3.66-.75,2.24,2.17,4.44,4.41,7.02,6.19,4.32,2.83,7.4,7.04,11.25,10.43.76.68,1.95,1.47,2.8,2.37Z"/>
      <path class="cls-3" d="M66.4,21.83c.64,5.09-.88,10.28-1.66,15.2-.68,3.69-1.49,7.35-2.42,10.98-1.15-.06-2.31-.11-3.46-.17-.34-.04-.67-.05-1.01-.06.68-3.21,1.5-6.38,2.18-9.58.91-4.97,2.84-9.93,2.51-15.03-4.73,3.46-9.19,7.27-13.62,11.11-1.57,1.39-3.07,2.86-4.56,4.34-.06-.07-.11-.14-.16-.22-.91-.91-1.79-1.84-2.69-2.77,5.19-5.71,11.7-10.35,17.74-15.1,3.16-2.52,6.25-4.03,7.14,1.3Z"/>
      <path class="cls-3" d="M83.02,45.96c4.7,0,6.69,2.52,2.46,5.77-5.08,3.8-10.14,7.61-15.49,11.03-2.86,1.59-8.91,7.31-11.8,6.94,0,0,0,0-.01,0-.24-1.34-.5-2.68-.79-4.01.08-.06.16-.12.26-.17,1.49-.85,3-1.66,4.43-2.63,6.68-4.26,13.52-8.27,19.75-13.19-7.61-.99-15.3-1.52-22.95-1.86-.34-.04-.67-.05-1.01-.06.25-1.16.51-2.32.78-3.48,8.12,0,16.31.76,24.38,1.65Z"/>
      <path class="cls-3" d="M63.52,87.47c.41,5.54-1.89,8.94-7.29,5.24-4.09-2.79-7.67-6.23-11.58-9.25-2.7-2.08-5.42-4.15-8.16-6.17-.81-.65-2.07-1.33-2.72-2.21,1.24-.8,2.48-1.6,3.73-2.38h0c.9.57,1.78,1.33,2.49,1.77,7.04,4.65,12.75,11,19.61,15.82,1.04-6.05.19-12.1-.98-18.06-.4-2.18-.77-4.37-1.25-6.54.08-.06.16-.12.26-.17.86-.49,1.73-.97,2.58-1.47,1.78,7.66,3.45,15.53,3.3,23.42Z"/>
      <path class="cls-3" d="M39.99,74.47c.15.1.31.21.46.31-.09.18-.23.35-.4.52-3.26,2.59-6.95,4.68-10.36,7.08-3.4,1.72-8.28,7.05-12.16,5.65-5.82-2.01.61-19.84,3.27-27.47h0c.43.08.85.16,1.28.23.86.12,2.03.17,2.46.89,0,.03-.01.05-.02.08-1.8,7.26-6.22,14.37-5.32,22.03,6.38-3.16,12.26-7.3,18.3-11.08h0c.9.57,1.78,1.33,2.49,1.77Z"/>
      <path class="cls-3" d="M26.73,41.64c-.01.41-.02.82-.04,1.23-.05.87-.02,1.73-.08,2.57h0c-4.03,1.55-8,2.89-12.13,4.29-2.13.83-4.17,1.84-6.2,2.89-1.37.93-3.26,1.59-4.08,3.08,3.94,1.74,8.14,3.02,12.34,4,1.85.4,3.72.75,5.54,1.07,1.11.15,2.75.19,2.62,1.73-.07.73-.79,1.38-1.53,1.26-5.6-.71-11.23-1.38-16.62-3.13-3.52-.92-7.94-2.23-6.13-6.85,3.21-6.03,18.85-9.78,26.31-12.15Z"/>
      <path class="cls-3" d="M125.44,74.73c.46,1.04.94,3.92.85,6.5-1.42.45-2.83.98-4.19,1.59.2-.78.49-1.58.6-2.24.2-2.44-.8-4.85-1.86-6.99-2.79-4.27-9.21-5.55-13.67-3.34-2.1,1.09-2.93,3.46-3.5,5.62-.49,2.08-.64,4.28-.15,6.37-1.14-.05-2.52-.2-4.04-.15-1.36-5.84.88-13.23,6.33-15.82,7.35-3.33,17.77.04,19.63,8.46Z"/>
      <path class="cls-3" d="M138.41,77.84c4.83,2.17,8.25,7.8,7.41,13.1-1.05,4.67-4.47,8.93-8.69,11.13-.04.02-.08.04-.13.06-.46-.82-.98-1.61-1.57-2.35-.23-.27-.45-.54-.67-.8.08-.03.16-.05.24-.07,1.59-.76,2.74-2.19,3.88-3.5,6.89-8.14-3.49-17.18-12.01-14.35-1.62.49-3.22,1.07-4.76,1.77.2-.78.49-1.58.6-2.24.07-.79,0-1.57-.14-2.35,4.81-2.69,10.99-3.15,15.85-.4Z"/>
      <path class="cls-3" d="M137.61,96.85c5.25,4.72,7.95,12.88,4.49,19.36-2.14,4.12-6.59,6.84-11.23,6.9-7.15-.2-11.93-4.46-15.78-9.91,1.02-1.19,1.93-2.47,2.74-3.83l.02.03c1.16,1.66,2.25,3.37,3.48,4.98,2.62,3.18,7.25,5.02,11.3,3.84,4.28-.89,6.25-5.48,6.27-9.49-.07-3.27-1.45-6.4-3.45-8.95-.23-.27-.45-.54-.67-.8.08-.03.16-.05.24-.07,1.01-.48,1.85-1.24,2.61-2.06Z"/>
      <path class="cls-3" d="M117.84,109.4c.84,1.2,1.64,2.43,2.48,3.63-3.81,6.93-11.71,13.31-19.97,11.62-9.96-1.55-11.04-11.21-7.54-19.1.71-1.16,2.19-3.76,3.9-5.69,1.85.51,3.76.81,5.6,1.06-.33.63-.91,1.16-1.58,1.5-1.38,1.57-2.48,3.09-3.58,4.81-1.27,3.21-2.14,7.55-.09,10.59,3.52,2.85,8.67,2.78,12.39.33,3.47-2.25,6.3-5.27,8.38-8.78l.02.03Z"/>
      <path class="cls-3" d="M103.28,78.31c-.11,1.32-.06,2.65.24,3.93-3.53-.17-9.32-1.18-14.44,5.08-2.96,3.94.3,9.11,4.03,11.18,2.83,1.44,6.13,1.99,9.19,2.42-.33.63-.91,1.16-1.58,1.5-.7.8-1.33,1.58-1.93,2.39-.77-.08-1.47-.18-1.98-.26-6.58-.88-12.9-5.68-13.57-12.61-.7-8.41,8.65-13.69,16.09-13.79.95.12,2.5.04,3.94.16Z"/>
      <path class="cls-3" d="M108.03,36.66c-2.67-.94-5.04-2.49-7.07-4.44-1.27-1.25-2.31-2.65-3.14-4.23-1.04-1.96-1.67-4.1-1.95-6.29-.44-3.46.05-7.12,1.5-10.31.66-1.44,1.46-2.84,2.44-4.08.46-.58.96-1.13,1.46-1.67.5-.54,1.02-1.06,1.6-1.52,1.19-.96,2.5-1.83,3.88-2.49,1.54-.73,3.18-1.17,4.86-1.42,2.02-.3,4.1-.26,6.11.14,1.71.34,3.33.96,4.9,1.69,1.74.8,3.3,1.92,4.69,3.23.64.61,1.27,1.23,1.83,1.91.64.77,1.17,1.61,1.65,2.48.74,1.35,1.36,2.72,1.75,4.21.36,1.39.53,2.79.61,4.22.04.62.07,1.23.06,1.85-.01.98-.15,1.97-.34,2.93-.35,1.74-.89,3.41-1.74,4.97-.42.78-.92,1.52-1.47,2.22,0,.03-.02.06-.03.09-.18.55-.55,1-1.03,1.3-.08.07-.16.14-.24.21-.61.62-1.22,1.22-1.9,1.77-.53.42-1.07.8-1.66,1.12-.47.26-.94.51-1.22.68-.91.56-1.86,1.06-2.87,1.42-1.3.47-2.65.73-4.02.88-.84.09-1.68.14-2.52.14-2.09,0-4.17-.3-6.15-.99ZM115.03,33.25c.44-.02.88-.05,1.32-.11.75-.12,1.49-.3,2.22-.51.97-.29,1.93-.65,2.86-1.05.12-.06.23-.11.35-.18.22-.14.43-.29.64-.45.35-.28.69-.57.81-.67.52-.41,1.02-.85,1.33-1.16.17-.18.36-.36.52-.55.02-.02.03-.05.05-.07.2-.49.55-.91,1.01-1.18.29-.43.55-.86.81-1.31.44-.81.83-1.64,1.18-2.5.18-.48.35-.97.49-1.46.19-.79.32-1.59.42-2.4.05-.49.1-.99.1-1.49-.02-.47-.08-.94-.15-1.4-.1-.6-.22-1.19-.39-1.78-.25-.84-.56-1.67-.91-2.47-.16-.34-.34-.67-.53-1-.45-.71-.94-1.4-1.45-2.06-.35-.43-.7-.84-1.09-1.23-.39-.36-.8-.69-1.22-1.01-.62-.45-1.26-.87-1.92-1.25-.46-.25-.94-.48-1.42-.69-.44-.17-.89-.3-1.35-.43-.75-.18-1.5-.32-2.26-.41-.62-.06-1.25-.09-1.88-.09-.7.02-1.39.08-2.08.18-.65.11-1.29.26-1.93.45-.85.26-1.68.58-2.49.94-.46.21-.92.44-1.35.69-.61.39-1.19.82-1.75,1.27-.37.3-.73.61-1.07.94-.35.37-.67.76-.98,1.16-.41.56-.8,1.13-1.15,1.73-.22.42-.42.84-.6,1.28-.28.72-.51,1.45-.71,2.2-.13.54-.23,1.08-.31,1.63-.06.6-.08,1.2-.08,1.8.02.61.06,1.21.14,1.82.11.63.25,1.26.42,1.88.19.62.41,1.23.66,1.83.27.58.56,1.14.88,1.7.43.69.9,1.34,1.4,1.98.4.48.8.96,1.24,1.4.43.4.89.78,1.35,1.14.48.35.98.67,1.5.97.59.32,1.18.6,1.8.86.6.23,1.22.43,1.85.6.74.18,1.48.33,2.24.42.49.05.99.06,1.48.06Z"/>
      <path class="cls-2" d="M126.87,81.05c8.51-2.84,18.9,6.21,12.01,14.35-.41.48-.83.97-1.27,1.44-.09.1-.19.21-.29.3-.07.07-.14.14-.21.21-.03.03-.06.06-.09.09-.13.12-.26.24-.39.36-.08.07-.17.14-.25.21-.09.07-.17.14-.26.2-.09.07-.18.13-.26.19-.18.12-.37.24-.56.34-.1.05-.19.1-.29.15-.08.02-.16.05-.24.07.23.26.45.54.67.8.06.08.12.16.19.24.06.07.11.15.17.23.12.17.25.34.36.52.06.08.11.16.16.24.05.07.1.15.14.22.12.19.24.38.35.57.07.11.13.22.19.34,1.12,2.02,1.84,4.27,1.88,6.6-.02,4.01-1.99,8.6-6.27,9.49-4.05,1.18-8.67-.66-11.3-3.84-.34-.45-.67-.9-.99-1.35-.03-.04-.05-.07-.08-.11-.18-.26-.36-.52-.54-.78-.63-.91-1.24-1.84-1.87-2.74l-.02-.03c-.1.17-.2.34-.31.5-.07.12-.15.23-.22.35-.07.12-.15.24-.23.35-.03.04-.06.09-.08.13-.13.2-.26.39-.4.58-.13.18-.26.36-.4.54-.05.07-.11.15-.17.23-.11.14-.21.27-.32.41-.02.03-.04.05-.06.08-.09.12-.19.23-.29.35-.08.1-.16.2-.25.3-1.62,1.9-3.51,3.57-5.64,4.95-3.72,2.46-8.87,2.53-12.39-.33-2.05-3.04-1.18-7.39.09-10.59.54-.84,1.08-1.64,1.65-2.42.07-.1.15-.2.23-.3.07-.1.15-.2.23-.3.46-.6.95-1.19,1.48-1.79.67-.34,1.26-.88,1.58-1.5-.29-.04-.58-.08-.87-.12-.1-.01-.19-.03-.29-.04-.66-.1-1.32-.21-1.99-.34-.11-.02-.23-.04-.35-.07-.12-.02-.24-.05-.36-.07-.12-.02-.23-.05-.35-.07-.47-.1-.94-.22-1.4-.34-1.24-.34-2.46-.78-3.6-1.36-3.73-2.07-7-7.24-4.03-11.18,3.46-4.23,7.23-5.14,10.4-5.23.09,0,.19,0,.28,0,.44,0,.86,0,1.27.02.3.01.59.03.87.04.15,0,.29.02.43.03.28.02.55.04.81.05.13,0,.26.01.38.02-.21-.89-.3-1.8-.3-2.71,0-.13,0-.26,0-.39,0-.06,0-.12,0-.18,0-.22.02-.43.04-.65.07-.82.21-1.64.4-2.44.56-2.16,1.39-4.52,3.5-5.62,4.46-2.21,10.88-.94,13.67,3.34.72,1.45,1.41,3.03,1.72,4.65.02.09.03.17.04.26.01.07.02.14.03.21,0,.06.02.11.02.17,0,.07.02.14.02.21.05.5.06,1,.02,1.5-.11.66-.4,1.46-.6,2.24.21-.1.43-.19.64-.28.18-.08.35-.15.53-.22.18-.07.36-.15.55-.22.04-.02.09-.04.13-.05.15-.06.3-.12.45-.17.03-.01.06-.02.09-.03.19-.07.37-.14.56-.2.16-.06.32-.11.48-.16.25-.09.5-.17.75-.25.19-.06.39-.12.58-.18Z"/>
      <path class="cls-4" d="M62.32,48c6.51.34,13.02.85,19.49,1.69-6.22,4.92-13.06,8.94-19.75,13.19-.6.41-1.22.79-1.84,1.16-.21.13-.43.25-.64.37-.22.12-.43.25-.65.37-.43.25-.86.49-1.29.73-.09.05-.18.11-.26.17.07.33.14.67.21,1,.08.39.16.78.23,1.17.04.21.08.41.12.62.07.41.15.81.22,1.22.15.84.3,1.69.46,2.53,1.17,5.96,2.02,12.01.98,18.06-6.71-4.71-12.33-10.89-19.15-15.51-.15-.1-.31-.21-.46-.31-.71-.44-1.59-1.2-2.49-1.78h0c-.31.2-.62.4-.94.6-.25.16-.51.32-.76.48-.68.43-1.36.87-2.04,1.31-4.76,3.07-9.5,6.19-14.56,8.7-.83-7.01,2.81-13.57,4.81-20.19.38-.23.65-.64.69-1.08.03-.35-.04-.63-.17-.84-.03-.04-.06-.08-.09-.12h0s-.07-.08-.1-.11c-.06-.06-.12-.11-.19-.15-.03-.02-.05-.03-.08-.05-.01,0-.03-.02-.04-.02-.02-.01-.05-.03-.08-.04-.16-.08-.33-.14-.52-.18-.05-.01-.1-.03-.15-.04,0,0-.01,0-.02,0-.05-.01-.1-.02-.15-.03-.12-.02-.24-.04-.36-.06-.05,0-.1-.01-.15-.02-.07,0-.15-.02-.22-.03-.05,0-.1-.01-.15-.02-.06,0-.11-.01-.16-.02-.42-.07-.85-.15-1.28-.23h0c-1.41-.26-2.84-.53-4.26-.84-4.2-.98-8.4-2.26-12.34-4,.81-1.5,2.71-2.15,4.08-3.08,2.03-1.06,4.07-2.06,6.2-2.89,3.18-1.08,6.26-2.12,9.34-3.24.47-.17.95-.35,1.42-.52.46-.17.91-.34,1.37-.52.06-.85.03-1.71.08-2.58.01-.41.02-.82.04-1.23.19-6.71.25-13.44-.03-20.15,4.03,4.05,8.26,7.89,12.45,11.78.82.76,1.6,1.56,2.37,2.36.9.92,1.78,1.86,2.69,2.77.05.07.1.15.16.22.75-.74,1.49-1.47,2.25-2.2.14-.13.28-.26.41-.4.21-.2.41-.39.62-.59.42-.39.84-.77,1.27-1.15,4.43-3.84,8.89-7.65,13.62-11.11.33,5.1-1.6,10.06-2.51,15.03-.44,2.04-.93,4.07-1.4,6.1-.08.36-.17.72-.25,1.08-.1.43-.2.87-.3,1.31-.08.36-.16.73-.24,1.09.34,0,.67.02,1.01.06,1.15.05,2.31.11,3.46.17Z"/>
      <path class="cls-1" d="M129.13,18.17c0,.5-.04.99-.1,1.49-.1.81-.23,1.61-.42,2.4-.14.49-.3.98-.49,1.46-.35.86-.74,1.69-1.18,2.5-.26.45-.52.88-.81,1.31-.45.27-.81.69-1.01,1.18-.02.03-.03.05-.05.07-.16.19-.35.37-.52.55-.31.32-.81.75-1.33,1.16-.13.1-.47.38-.82.67-.21.16-.42.3-.64.45-.11.06-.23.12-.35.18-.93.41-1.89.76-2.86,1.05-.73.2-1.47.38-2.22.51-.44.06-.87.1-1.31.11-.5,0-.99-.01-1.48-.06-.75-.1-1.5-.25-2.24-.42-.63-.17-1.24-.37-1.85-.6-.61-.26-1.21-.55-1.8-.86-.52-.3-1.01-.62-1.5-.97-.47-.36-.92-.73-1.35-1.14-.44-.44-.85-.91-1.24-1.39-.5-.64-.97-1.29-1.4-1.98-.32-.55-.61-1.12-.88-1.69-.25-.6-.47-1.21-.67-1.83-.17-.62-.32-1.24-.42-1.88-.08-.6-.12-1.21-.14-1.82,0-.6.02-1.2.08-1.8.07-.55.18-1.09.31-1.62.2-.75.43-1.48.71-2.2.18-.44.38-.86.6-1.28.35-.6.74-1.17,1.15-1.73.31-.4.63-.79.98-1.16.34-.34.7-.64,1.07-.94.57-.45,1.14-.88,1.76-1.27.44-.26.89-.48,1.35-.69.82-.35,1.64-.67,2.49-.94.64-.18,1.28-.33,1.93-.45.69-.1,1.39-.15,2.08-.18.63,0,1.26.02,1.88.09.76.09,1.51.23,2.26.41.46.12.91.26,1.35.42.49.21.96.44,1.42.69.66.38,1.3.8,1.92,1.25.42.32.83.65,1.21,1.01.39.39.74.8,1.09,1.23.51.67,1,1.35,1.45,2.06.19.32.36.66.52,1,.35.8.65,1.63.9,2.47.16.58.29,1.18.39,1.78.07.46.13.93.15,1.4Z"/>
    </g>
  </g>
</svg>